HIERARCHY
ROOT Hip
{
    OFFSET 0.0 0.0 0.0
    CHANNELS 6 Xposition Yposition Zposition Zrotation Xrotation Yrotation
    JOINT RightHip
    {
        OFFSET -6.504843849338226 0.0 0.0
        CHANNELS 3 Zrotation Xrotation Yrotation
        JOINT RightKnee
        {
            OFFSET 0.0 0.0 -22.91828833267448
            CHANNELS 3 Zrotation Xrotation Yrotation
            JOINT RightAnkle
            {
                OFFSET 0.0 0.0 -28.074050074747056
                CHANNELS 3 Zrotation Xrotation Yrotation
                End Site
                {
                    OFFSET 0.0 -11.229620029898822 0.0
                }
            }
        }
    }
    JOINT LeftHip
    {
        OFFSET 6.504843849338226 0.0 0.0
        CHANNELS 3 Zrotation Xrotation Yrotation
        JOINT LeftKnee
        {
            OFFSET 0.0 0.0 -22.91828833267448
            CHANNELS 3 Zrotation Xrotation Yrotation
            JOINT LeftAnkle
            {
                OFFSET 0.0 0.0 -28.074050074747056
                CHANNELS 3 Zrotation Xrotation Yrotation
                End Site
                {
                    OFFSET 0.0 -11.229620029898822 0.0
                }
            }
        }
    }
    JOINT Spine
    {
        OFFSET 0.0 0.0 18.9069506850104
        CHANNELS 3 Zrotation Xrotation Yrotation
        JOINT Thorax
        {
            OFFSET 0.0 0.0 22.188173116359266
            CHANNELS 3 Zrotation Xrotation Yrotation
            JOINT Neck
            {
                OFFSET 0.0 0.0 2.9193518515498713
                CHANNELS 3 Zrotation Xrotation Yrotation
                JOINT Head
                {
                    OFFSET 0.0 0.0 9.008971225794337
                    CHANNELS 3 Zrotation Xrotation Yrotation
                    End Site
                    {
                        OFFSET -3.603588490317735 0.0 0.0
                    }
                }
            }
            JOINT LeftShoulder
            {
                OFFSET 10.808036129924197 0.0 0.0
                CHANNELS 3 Zrotation Xrotation Yrotation
                JOINT LeftElbow
                {
                    OFFSET 21.433674900611642 0.0 0.0
                    CHANNELS 3 Zrotation Xrotation Yrotation
                    JOINT LeftWrist
                    {
                        OFFSET 12.022258419397346 0.0 0.0
                        CHANNELS 3 Zrotation Xrotation Yrotation
                        End Site
                        {
                            OFFSET 4.808903367758939 0.0 0.0
                        }
                    }
                }
            }
            JOINT RightShoulder
            {
                OFFSET -10.808036129924197 0.0 0.0
                CHANNELS 3 Zrotation Xrotation Yrotation
                JOINT RightElbow
                {
                    OFFSET -21.433674900611642 0.0 0.0
                    CHANNELS 3 Zrotation Xrotation Yrotation
                    JOINT RightWrist
                    {
                        OFFSET -12.022258419397346 0.0 0.0
                        CHANNELS 3 Zrotation Xrotation Yrotation
                        End Site
                        {
                            OFFSET -4.808903367758939 0.0 0.0
                        }
                    }
                }
            }
            JOINT Nose
            {
                OFFSET 0.0 0.0 8.692121309500168
                CHANNELS 3 Zrotation Xrotation Yrotation
                End Site
                {
                    OFFSET -3.4768485238000673 0.0 0.0
                }
            }
        }
    }
}
MOTION
Frames: 4
Frame Time: 0.03333333333333333
0.84695406365433 43.888105016187225 8.158207694262789 -1.6605503161600739 0.17764575695445772 0.21721862462376995 -2.786083153401434 -12.470580324696975 9.087653972356948 -0.6372170210395393 22.813313395917238 -13.987127752664051 0.0 0.0 1.987846675914698e-16 -0.008813025223080771 -10.162253607552499 -7.4705437331176885 -4.2355181176102175 21.175168842826725 15.612250865550788 0.0 0.0 0.0 -1.9978170077013897e-16 3.0220614967782025 3.5175706685650803e-17 1.766376361227902 -0.015871775716669187 1.0913282644768683 0.06215322024559705 -11.587653020446936 24.15616568510943 0.0 0.0 2.4848083448933725e-17 -88.44574582254702 -7.316560619926818 6.7002107118629395 2.0657544765398333e-15 4.3004065652749044e-15 -51.31577706013976 0.0 0.0 0.0 85.08558735976352 -26.613558273894817 -7.685637128985155 0.0 0.0 53.2707623972564 -6.3611093629270335e-15 -1.5902773407317584e-15 -8.827812596100317e-32 0.0 0.0 7.143823991568446e-17
0.8690251582321342 44.824931457942654 7.961209233027648 -2.380533995123563 0.11703029835571994 2.8484825955348416 1.658253817964037 -14.9649121591435 11.336421690893722 -7.290165700888534 26.936482922818836 -14.121083846923229 0.0 0.0 -1.987846675914698e-16 1.4788929312998254 -8.593305383826872 -5.687487389602077 -3.810160981571943 18.231583773488005 13.300542913050931 0.0 0.0 -7.454425034680117e-16 -4.070652634099544e-16 2.7636784442308673 3.888628637109678e-16 2.6620346886904884 -0.0008997880265508677 0.060940218200415695 -0.45829177022535933 -13.823824450050607 24.88519613627681 0.0 0.0 7.454425034680117e-16 -84.17725985474092 -20.71729853039412 7.304402908923884 1.0159210913137916e-14 -8.2922379978285e-15 -50.37212319645991 0.0 0.0 0.0 84.95569652257925 -28.22590153164887 -7.499767913348618 5.194097274979074e-15 -9.845886069818896e-15 55.62686623762565 0.0 0.0 0.0 0.0 0.0 -7.687375817013871e-17
0.8757282914417618 45.10945166654633 7.90137953481781 -4.44667406293876 -0.549952464503009 5.940512573812929 11.045387402591594 -16.74839477571618 16.009731467832033 -22.06817325650169 35.387914470680116 -11.139130634766596 0.0 0.0 0.0 7.237513754024526 -5.503289440282273 -3.7087055349777476 -8.61759403146674 12.978974875539828 9.409579194896178 7.951386703658792e-16 -6.896728590703373e-33 -9.93923337957349e-16 -1.0615388892018874e-17 2.445698080565252 4.973014725383032e-16 4.833686825826287 0.011106919474384877 -1.9423303587377603 -1.0990729418063345 -13.945820482346155 25.586672787048578 0.0 0.0 -4.472655020808071e-16 -73.16067076717276 -38.218442969825404 9.61560558184365 -3.210949476453335e-15 7.274225317570654e-15 -58.6254750379139 0.0 0.0 0.0 84.39553139807012 -32.1533038617187 -7.77262219607831 2.6041734223928625e-15 -3.997389019110662e-15 66.16596083251068 0.0 0.0 0.0 2.4848083448933722e-17 -7.765026077791788e-19 9.861583118795571e-17
0.8928530406913955 45.83632626032481 7.748530330202103 -5.597549695485845 -1.5014289048796015 7.695199984241489 18.777936147622995 -16.068758635578703 18.69753088884035 -41.52781920432491 40.02026537483206 -3.7262184517657033 0.0 0.0 0.0 11.376368039688511 -2.610859570237425 -1.6866741040186424 -13.295535777782227 7.639425949548975 6.233951508436619 1.5902773407317584e-15 -7.951386703658792e-16 -1.441188840038156e-15 1.601080160944119e-15 3.0114327062579767 -3.900789354078845e-16 6.01119522517399 0.0006276367131078743 -3.7543587890966252 -2.360993869207256 -12.61195853491331 27.4819217707804 0.0 0.0 1.0436195048552165e-15 -61.554712740669366 -59.77433337084521 9.75669492116158 -1.4409506693976478e-14 9.918313430723838e-15 -69.08062186022708 -1.5902773407317584e-15 0.0 0.0 83.28935787060134 -30.0788188909107 -6.756240764463259 -1.0638930512290146e-15 1.1819955989729781e-15 83.9796209613881 -6.361109362927033e-15 -3.1805546814635164e-15 -1.7655625192200634e-31 0.0 0.0 -3.6932405282497195e-16
